<svg xmlns="http://www.w3.org/2000/svg" width="24" height="20" fill="none">
  <path fill="#F5F5F5" d="M21.5156 5.125v.65625c0 6.51565-4.9218 13.96875-13.96872 13.96875-2.8125 0-5.39063-.7969-7.54688-2.2031.375.0469.75.0937 1.17188.0937 2.29687 0 4.40624-.7968 6.09374-2.1094-2.15624-.0468-3.98437-1.4531-4.59374-3.4218.32812.0468.60937.0937.9375.0937.42187 0 .89062-.0937 1.26562-.1875C2.625 11.5469.9375 9.57812.9375 7.1875v-.04688c.65625.375 1.45312.5625 2.25.60938C1.82812 6.85938.984375 5.35938.984375 3.67188c0-.9375.234375-1.78126.656245-2.48438 2.4375 2.95312 6.09376 4.92188 10.17188 5.15625-.0937-.375-.1406-.75-.1406-1.125C11.6719 2.5 13.875.296875 16.5938.296875c1.4062 0 2.6718.5625 3.6093 1.546875 1.0781-.23437 2.1563-.65625 3.0938-1.21875-.375 1.17188-1.125 2.10938-2.1563 2.71875.9844-.09375 1.9688-.375 2.8125-.75-.6562.98437-1.5 1.82813-2.4375 2.53125Z"/>
</svg>
