<svg xmlns="http://www.w3.org/2000/svg" width="181" height="60" fill="none">
  <rect width="180" height="60" x=".5" fill="#fff" rx="7"/>
  <path fill="#212121" d="M122.789 28.8014v3.4365h-2.154v2.2537h2.154v7.6575c0 2.6147 1.183 3.6606 4.158 3.6606.523 0 1.021-.0622 1.457-.137V43.444c-.373.0373-.61.0622-1.021.0622-1.332 0-1.917-.6225-1.917-2.0419v-6.9727h2.938v-2.2537h-2.938v-3.4365h-2.677ZM135.985 45.9965c3.959 0 6.387-2.6521 6.387-7.0474 0-4.3703-2.44-7.0349-6.387-7.0349-3.959 0-6.4 2.6646-6.4 7.0349 0 4.3953 2.428 7.0474 6.4 7.0474Zm0-2.3782c-2.328 0-3.636-1.7058-3.636-4.6692 0-2.9385 1.308-4.6567 3.636-4.6567 2.316 0 3.636 1.7182 3.636 4.6567 0 2.9509-1.32 4.6692-3.636 4.6692ZM144.45 45.735h2.677v-8.0061c0-1.905 1.432-3.1875 3.461-3.1875.473 0 1.27.0872 1.494.1619v-2.6397c-.286-.0747-.796-.112-1.195-.112-1.768 0-3.275.9711-3.661 2.3034h-.199v-2.0793h-2.577V45.735ZM158.729 34.1928c1.98 0 3.275 1.382 3.337 3.5112h-6.848c.149-2.1167 1.532-3.5112 3.511-3.5112Zm3.325 7.8816c-.498 1.0583-1.606 1.6435-3.225 1.6435-2.142 0-3.524-1.5066-3.611-3.8848v-.1494h9.575v-.9338c0-4.2583-2.279-6.8357-6.051-6.8357-3.823 0-6.251 2.7517-6.251 7.0847s2.378 6.9976 6.263 6.9976c3.101 0 5.267-1.4942 5.877-3.9221h-2.577ZM105.233 40.7278c.207 3.3295 2.982 5.4589 7.111 5.4589 4.414 0 7.176-2.2326 7.176-5.7945 0-2.8004-1.575-4.3491-5.395-5.2395l-2.052-.5033c-2.426-.5679-3.407-1.3293-3.407-2.6585 0-1.6777 1.523-2.7746 3.807-2.7746 2.168 0 3.665 1.0711 3.936 2.7875h2.814c-.168-3.136-2.93-5.3428-6.711-5.3428-4.065 0-6.775 2.2068-6.775 5.5235 0 2.7359 1.535 4.3619 4.904 5.1492l2.4.5807c2.465.5807 3.549 1.4325 3.549 2.8521 0 1.6518-1.703 2.852-4.026 2.852-2.491 0-4.22-1.1227-4.466-2.8907h-2.865ZM77.5024 31.9516c-1.8428 0-3.4365.9213-4.2583 2.4653h-.1992v-2.2412h-2.5774v18.0666h2.677v-6.5617h.2117c.7097 1.4318 2.2412 2.2785 4.1711 2.2785 3.4241 0 5.603-2.7019 5.603-7.01s-2.1789-6.9975-5.6279-6.9975Zm-.7595 11.6044c-2.2412 0-3.6482-1.768-3.6482-4.5944 0-2.8389 1.407-4.607 3.6606-4.607 2.2661 0 3.6233 1.7307 3.6233 4.5945 0 2.8762-1.3572 4.6069-3.6357 4.6069ZM92.4976 31.9516c-1.8428 0-3.4365.9213-4.2583 2.4653h-.1992v-2.2412h-2.5774v18.0666h2.677v-6.5617h.2116c.7098 1.4318 2.2413 2.2785 4.1712 2.2785 3.4241 0 5.603-2.7019 5.603-7.01s-2.1789-6.9975-5.6279-6.9975Zm-.7595 11.6044c-2.2412 0-3.6482-1.768-3.6482-4.5944 0-2.8389 1.407-4.607 3.6606-4.607 2.2661 0 3.6233 1.7307 3.6233 4.5945 0 2.8762-1.3572 4.6069-3.6357 4.6069ZM65.6645 45.735h3.0714l-6.7236-18.6223h-3.1102L52.1785 45.735h2.9682l1.7164-4.9427h7.0979l1.7035 4.9427Zm-5.3557-15.2411h.2194l2.6972 7.8722h-5.6267l2.7101-7.8722Z"/>
  <path fill="#616161" d="M53.9767 13.0664v8.9835h3.2435c2.677 0 4.2272-1.6498 4.2272-4.5197 0-2.8265-1.5626-4.4638-4.2272-4.4638h-3.2435Zm1.3945 1.27h1.6934c1.8614 0 2.9634 1.1829 2.9634 3.2124 0 2.0607-1.0833 3.2311-2.9634 3.2311h-1.6934v-6.4435ZM66.195 22.1807c1.9798 0 3.1937-1.3261 3.1937-3.5237 0-2.1852-1.2202-3.5175-3.1937-3.5175-1.9797 0-3.1999 1.3323-3.1999 3.5175 0 2.1976 1.214 3.5237 3.1999 3.5237Zm0-1.1891c-1.1642 0-1.8179-.8529-1.8179-2.3346 0-1.4693.6537-2.3284 1.8179-2.3284 1.158 0 1.8179.8591 1.8179 2.3284 0 1.4754-.6599 2.3346-1.8179 2.3346ZM79.727 15.2703h-1.3385l-1.2078 5.1734h-.1058l-1.3946-5.1734h-1.2824l-1.3946 5.1734h-.0996l-1.214-5.1734h-1.3572l1.8677 6.7796h1.3759l1.3945-4.9929h.1058l1.4008 4.9929h1.3883l1.8615-6.7796ZM81.2684 22.0499h1.3385v-3.9657c0-1.0583.6288-1.7182 1.6187-1.7182.9898 0 1.463.5416 1.463 1.6311v4.0528h1.3385v-4.389c0-1.6124-.8343-2.5214-2.3471-2.5214-1.021 0-1.6933.4545-2.0233 1.2078h-.0996v-1.077h-1.2887v6.7796ZM89.1351 22.0499h1.3385v-9.4255h-1.3385v9.4255ZM95.5076 22.1807c1.9797 0 3.1937-1.3261 3.1937-3.5237 0-2.1852-1.2202-3.5175-3.1937-3.5175-1.9798 0-3.2 1.3323-3.2 3.5175 0 2.1976 1.214 3.5237 3.2 3.5237Zm0-1.1891c-1.1642 0-1.8179-.8529-1.8179-2.3346 0-1.4693.6537-2.3284 1.8179-2.3284 1.1579 0 1.8178.8591 1.8178 2.3284 0 1.4754-.6599 2.3346-1.8178 2.3346ZM102.689 21.0352c-.728 0-1.257-.3549-1.257-.965 0-.5977.423-.9152 1.357-.9774l1.656-.1059v.5666c0 .8404-.747 1.4817-1.756 1.4817Zm-.342 1.1268c.89 0 1.631-.386 2.036-1.0646h.106v.9525h1.288v-4.6318c0-1.4319-.958-2.2786-2.658-2.2786-1.538 0-2.633.7471-2.77 1.9113h1.295c.149-.4794.666-.7533 1.413-.7533.915 0 1.388.4046 1.388 1.1206v.5852l-1.837.1058c-1.612.0996-2.521.8031-2.521 2.0233 0 1.2389.953 2.0296 2.26 2.0296ZM110.319 22.162c.934 0 1.725-.442 2.13-1.1829h.105v1.0708h1.283v-9.4255h-1.339v3.7229h-.099c-.367-.7471-1.152-1.1891-2.08-1.1891-1.712 0-2.813 1.3572-2.813 3.4988 0 2.1478 1.089 3.505 2.813 3.505Zm.38-5.8023c1.121 0 1.824.8903 1.824 2.3035 0 1.4194-.697 2.2972-1.824 2.2972-1.133 0-1.811-.8653-1.811-2.3034 0-1.4257.684-2.2973 1.811-2.2973ZM122.517 22.1807c1.979 0 3.193-1.3261 3.193-3.5237 0-2.1852-1.22-3.5175-3.193-3.5175-1.98 0-3.2 1.3323-3.2 3.5175 0 2.1976 1.214 3.5237 3.2 3.5237Zm0-1.1891c-1.165 0-1.818-.8529-1.818-2.3346 0-1.4693.653-2.3284 1.818-2.3284 1.158 0 1.818.8591 1.818 2.3284 0 1.4754-.66 2.3346-1.818 2.3346ZM127.482 22.0499h1.339v-3.9657c0-1.0583.628-1.7182 1.618-1.7182.99 0 1.463.5416 1.463 1.6311v4.0528h1.339v-4.389c0-1.6124-.834-2.5214-2.347-2.5214-1.021 0-1.694.4545-2.024 1.2078h-.099v-1.077h-1.289v6.7796ZM139.405 13.5831v1.7183h-1.077v1.1268h1.077v3.8288c0 1.3073.592 1.8303 2.08 1.8303.261 0 .51-.0311.728-.0685v-1.1144c-.187.0187-.305.0311-.51.0311-.666 0-.959-.3112-.959-1.0209v-3.4864h1.469v-1.1268h-1.469v-1.7183h-1.339ZM144.01 22.0499h1.338v-3.9594c0-1.0273.61-1.7183 1.706-1.7183.946 0 1.451.5478 1.451 1.6311v4.0466h1.338v-4.3766c0-1.6124-.89-2.5275-2.334-2.5275-1.021 0-1.737.4544-2.067 1.2139h-.106v-3.7353h-1.326v9.4255ZM154.672 16.2788c.99 0 1.637.691 1.668 1.7556h-3.424c.075-1.0583.766-1.7556 1.756-1.7556Zm1.662 3.9408c-.249.5292-.803.8218-1.612.8218-1.071 0-1.762-.7533-1.806-1.9424v-.0747h4.788v-.4669c0-2.1292-1.14-3.4179-3.026-3.4179-1.911 0-3.125 1.3759-3.125 3.5424s1.189 3.4988 3.131 3.4988c1.55 0 2.634-.7471 2.939-1.9611h-1.289Z"/>
  <path fill="#F17228" d="M37.6535 30.4512c.0325-2.5215 1.3866-4.9074 3.5348-6.2281-1.3552-1.9354-3.6251-3.1626-5.9867-3.2365-2.5189-.2644-4.9608 1.5073-6.2444 1.5073-1.3084 0-3.2846-1.481-5.4127-1.4372-2.7739.0896-5.3598 1.6666-6.7094 4.0918-2.901 5.0226-.7371 12.4042 2.0418 16.4641 1.3904 1.988 3.0153 4.2087 5.1415 4.1299 2.0805-.0863 2.8576-1.3267 5.3691-1.3267 2.4881 0 3.2171 1.3267 5.3865 1.2767 2.2325-.0363 3.6391-1.9969 4.9807-4.0038.999-1.4165 1.7677-2.9821 2.2776-4.6387-2.6236-1.1097-4.3757-3.7501-4.3788-6.5988ZM33.556 18.3166c1.2173-1.4613 1.817-3.3396 1.6718-5.2359-1.8598.1953-3.5777 1.0842-4.8114 2.4894-1.2064 1.373-1.8343 3.2182-1.7156 5.0421 1.8605.0191 3.6894-.8456 4.8552-2.2956Z"/>
</svg>
