<svg xmlns="http://www.w3.org/2000/svg" width="22" height="22" fill="none">
  <path fill="#F5F5F5" d="M11.5 5.60938c-3 0-5.39062 2.4375-5.39062 5.39062 0 3 2.39062 5.3906 5.39062 5.3906 2.9531 0 5.3906-2.3906 5.3906-5.3906 0-2.95312-2.4375-5.39062-5.3906-5.39062Zm0 8.90622c-1.92188 0-3.51562-1.5468-3.51562-3.5156 0-1.92188 1.54687-3.46875 3.51562-3.46875 1.9219 0 3.4688 1.54687 3.4688 3.46875 0 1.9688-1.5469 3.5156-3.4688 3.5156Zm6.8438-9.09372c0-.70313-.5626-1.26563-1.2657-1.26563-.7031 0-1.2656.5625-1.2656 1.26563 0 .70312.5625 1.26562 1.2656 1.26562.7031 0 1.2657-.5625 1.2657-1.26562Zm3.5624 1.26562C21.8125 5 21.4375 3.5 20.2188 2.28125 19 1.0625 17.5.6875 15.8125.59375 14.0781.5 8.875.5 7.14062.59375 5.45312.6875 4 1.0625 2.73438 2.28125 1.51562 3.5 1.14062 5 1.04688 6.6875c-.093755 1.73438-.093755 6.9375 0 8.6719.09374 1.6875.46874 3.1406 1.6875 4.4062C4 20.9844 5.45312 21.3594 7.14062 21.4531c1.73438.0938 6.93748.0938 8.67188 0 1.6875-.0937 3.1875-.4687 4.4063-1.6875 1.2187-1.2656 1.5937-2.7187 1.6874-4.4062.0938-1.7344.0938-6.93752 0-8.6719Zm-2.25 10.5c-.3281.9375-1.0781 1.6406-1.9687 2.0156-1.4063.5625-4.6875.4219-6.1875.4219-1.54688 0-4.82812.1406-6.1875-.4219-.9375-.375-1.64062-1.0781-2.01562-2.0156C2.73438 15.8281 2.875 12.5469 2.875 11c0-1.5-.14062-4.78125.42188-6.1875.375-.89062 1.07812-1.59375 2.01562-1.96875 1.35938-.5625 4.64062-.42187 6.1875-.42187 1.5 0 4.7812-.14063 6.1875.42187.8906.32813 1.5937 1.07813 1.9687 1.96875.5626 1.40625.4219 4.6875.4219 6.1875 0 1.5469.1407 4.8281-.4219 6.1875Z"/>
</svg>
