<svg xmlns="http://www.w3.org/2000/svg" width="24" height="19" fill="none">
  <path fill="#ADADAD" d="M23.5312 6.45312c.1876-.14062.4688 0 .4688.23438V16.25c0 1.2656-1.0312 2.25-2.25 2.25H2.25C.984375 18.5 0 17.5156 0 16.25V6.6875c0-.23438.234375-.375.421875-.23438C1.5 7.29688 2.85938 8.32812 7.64062 11.7969c.98438.7031 2.67188 2.25 4.35938 2.25 1.6406 0 3.375-1.5469 4.3125-2.25 4.7813-3.46878 6.1406-4.50002 7.2187-5.34378ZM12 12.5c-1.125.0469-2.67188-1.3594-3.46875-1.9219C2.29688 6.07812 1.82812 5.65625.421875 4.53125.140625 4.34375 0 4.01562 0 3.64062V2.75C0 1.53125.984375.5 2.25.5h19.5C22.9688.5 24 1.53125 24 2.75v.89062c0 .375-.1875.70313-.4688.89063-1.4062 1.125-1.875 1.54687-8.1093 6.04685-.7969.5625-2.3438 1.9688-3.4219 1.9219Z"/>
</svg>
