<svg xmlns="http://www.w3.org/2000/svg" width="18" height="18" fill="none">
  <path fill="#fff" d="M9 .53125c4.8164 0 8.7188 3.90234 8.7188 8.71875 0 4.8164-3.9024 8.7188-8.7188 8.7188-4.81641 0-8.71875-3.9024-8.71875-8.7188C.28125 4.43359 4.18359.53125 9 .53125Zm3.2344 11.00395c.0703-.0704.1406-.211.1406-.3516 0-.1758-.1055-.3164-.2109-.4219L10.125 9.25V4.1875c0-.28125-.28125-.5625-.5625-.5625h-1.125c-.31641 0-.5625.28125-.5625.5625v5.48438c0 .45702.17578.84372.52734 1.08982l2.35546 1.7578c.0703.0703.211.1407.3164.1407.211 0 .3516-.1055.457-.2461l.7032-.8789Z"/>
</svg>
