<svg xmlns="http://www.w3.org/2000/svg" width="203" height="60" fill="none">
  <rect width="202.5" height="60" fill="#fff" rx="5"/>
  <path fill="#212121" d="M102.204 32.6267c-3.528 0-6.4035 2.6835-6.4035 6.3795 0 3.6735 2.8755 6.3795 6.4035 6.3795 3.529 0 6.405-2.706 6.405-6.3795-.002-3.696-2.877-6.3795-6.405-6.3795Zm0 10.248c-1.934 0-3.6-1.5945-3.6-3.867 0-2.2965 1.668-3.867 3.6-3.867 1.933 0 3.6 1.5705 3.6 3.867 0 2.271-1.667 3.867-3.6 3.867Zm-13.971-10.248c-3.528 0-6.4035 2.6835-6.4035 6.3795 0 3.6735 2.8755 6.3795 6.4035 6.3795 3.5295 0 6.405-2.706 6.405-6.3795 0-3.696-2.8755-6.3795-6.405-6.3795Zm0 10.248c-1.9335 0-3.6-1.5945-3.6-3.867 0-2.2965 1.668-3.867 3.6-3.867 1.9335 0 3.6 1.5705 3.6 3.867.0015 2.271-1.6665 3.867-3.6 3.867Zm-16.617-8.289v2.706h6.477c-.1935 1.5225-.7005 2.634-1.4745 3.4065-.942.942-2.4165 1.9815-5.0025 1.9815-3.987 0-7.104-3.2145-7.104-7.2015s3.117-7.2015 7.104-7.2015c2.151 0 3.7215.846 4.881 1.9335l1.9095-1.9095c-1.62-1.5465-3.7695-2.73-6.7905-2.73-5.4615 0-10.053 4.446-10.053 9.9075 0 5.4615 4.5915 9.9075 10.053 9.9075 2.9475 0 5.172-.9675 6.9105-2.7795 1.788-1.788 2.3445-4.302 2.3445-6.3315 0-.627-.048-1.2075-.1455-1.6905H71.616v.0015Zm67.962 2.1015c-.531-1.425-2.151-4.0605-5.462-4.0605-3.286 0-6.018 2.586-6.018 6.3795 0 3.576 2.708 6.3795 6.332 6.3795 2.923 0 4.615-1.788 5.317-2.8275l-2.175-1.4505c-.724 1.0635-1.716 1.764-3.142 1.764-1.425 0-2.441-.6525-3.093-1.9335l8.53-3.528-.289-.723Zm-8.7 2.127c-.072-2.466 1.909-3.7215 3.336-3.7215 1.111 0 2.053.5565 2.368 1.353l-5.704 2.3685Zm-6.935 6.186h2.802V26.2487h-2.802v18.7515Zm-4.593-10.947h-.096c-.628-.75-1.837-1.4265-3.358-1.4265-3.191 0-6.114 2.8035-6.114 6.405 0 3.576 2.923 6.3555 6.114 6.3555 1.522 0 2.73-.6765 3.358-1.449h.096v.918c0 2.4405-1.305 3.7455-3.406 3.7455-1.716 0-2.78-1.2315-3.215-2.271l-2.44 1.0155c.7 1.6905 2.56 3.7695 5.655 3.7695 3.286 0 6.066-1.9335 6.066-6.6465v-11.454h-2.658v1.038h-.002Zm-3.213 8.8215c-1.933 0-3.552-1.62-3.552-3.843 0-2.2485 1.619-3.891 3.552-3.891 1.908 0 3.407 1.6425 3.407 3.891 0 2.223-1.499 3.843-3.407 3.843Zm36.572-16.626h-6.707v18.7515h2.798v-7.104h3.907c3.102 0 6.153-2.2455 6.153-5.823 0-3.5775-3.049-5.8245-6.151-5.8245Zm.072 9.0375H148.8v-6.4275h3.981c2.092 0 3.28 1.7325 3.28 3.2145 0 1.452-1.188 3.213-3.28 3.213Zm17.298-2.6925c-2.027 0-4.125.8925-4.994 2.871l2.484 1.0365c.531-1.0365 1.521-1.3755 2.558-1.3755 1.447 0 2.919.8685 2.943 2.412v.1935c-.507-.2895-1.593-.723-2.919-.723-2.678 0-5.405 1.4715-5.405 4.221 0 2.5095 2.196 4.125 4.656 4.125 1.881 0 2.919-.8445 3.57-1.8345h.096v1.4475h2.703v-7.1895c.002-3.327-2.485-5.184-5.692-5.184Zm-.339 10.2765c-.915 0-2.195-.459-2.195-1.593 0-1.4475 1.593-2.0025 2.969-2.0025 1.228 0 1.809.2655 2.556.627-.218 1.7385-1.713 2.9685-3.33 2.9685Zm15.874-9.867-3.208 8.13h-.096l-3.33-8.13h-3.015l4.993 11.3625-2.847 6.321h2.919l7.697-17.6835h-3.113Zm-25.209 11.997h2.798V26.2487h-2.798v18.7515Z"/>
  <path fill="#616161" d="M71.1271 15.3644c0 1.257-.372 2.2575-1.1175 3.0045-.846.888-1.95 1.332-3.306 1.332-1.299 0-2.4045-.45-3.312-1.35-.909-.9015-1.3635-2.0175-1.3635-3.3495 0-1.3335.4545-2.4495 1.3635-3.3495.9075-.9015 2.013-1.3515 3.312-1.3515.645 0 1.2615.126 1.8465.3765.5865.252 1.056.5865 1.407 1.005l-.7905.792c-.5955-.7125-1.416-1.068-2.4645-1.068-.948 0-1.767.333-2.4585.999-.6915.666-1.0365 1.5315-1.0365 2.595 0 1.0635.345 1.929 1.0365 2.595.6915.666 1.5105.999 2.4585.999 1.005 0 1.8435-.3345 2.514-1.005.435-.4365.687-1.044.7545-1.8225h-3.2685v-1.0815h4.3605c.045.2355.0645.462.0645.6795ZM78.0422 11.6055h-4.098v2.853h3.696V15.54h-3.696v2.853h4.098V19.5h-5.2545v-9h5.2545v1.1055ZM82.9185 19.5h-1.1564v-7.8945H79.248V10.5h6.1845v1.1055h-2.514V19.5ZM89.907 19.5v-9h1.1565v9H89.907ZM96.1922 19.5h-1.1565v-7.8945h-2.514V10.5h6.1845v1.1055h-2.514V19.5ZM110.413 18.3375c-.885.909-1.984 1.3635-3.3 1.3635-1.315 0-2.415-.4545-3.298-1.3635-.885-.909-1.326-2.022-1.326-3.3375 0-1.3155.441-2.4285 1.326-3.3375.883-.909 1.983-1.365 3.298-1.365 1.308 0 2.406.4575 3.294 1.371.888.9135 1.332 2.0235 1.332 3.3315 0 1.3155-.442 2.4285-1.326 3.3375Zm-5.745-.7545c.666.675 1.481 1.011 2.445 1.011.965 0 1.781-.3375 2.445-1.011.666-.675 1.001-1.536 1.001-2.583 0-1.047-.335-1.908-1.001-2.583-.664-.675-1.48-1.011-2.445-1.011-.964 0-1.779.3375-2.445 1.011-.664.675-.999 1.536-.999 2.583 0 1.047.335 1.908.999 2.583ZM113.362 19.5v-9h1.407l4.374 7.0005h.05l-.05-1.734V10.5h1.157v9h-1.208l-4.576-7.341h-.05l.05 1.734V19.5h-1.154Z"/>
  <path stroke="#212121" stroke-miterlimit="10" stroke-width=".2" d="M71.1271 15.3644c0 1.257-.372 2.2575-1.1175 3.0045-.846.888-1.95 1.332-3.306 1.332-1.299 0-2.4045-.45-3.312-1.35-.909-.9015-1.3635-2.0175-1.3635-3.3495 0-1.3335.4545-2.4495 1.3635-3.3495.9075-.9015 2.013-1.3515 3.312-1.3515.645 0 1.2615.126 1.8465.3765.5865.252 1.056.5865 1.407 1.005l-.7905.792c-.5955-.7125-1.416-1.068-2.4645-1.068-.948 0-1.767.333-2.4585.999-.6915.666-1.0365 1.5315-1.0365 2.595 0 1.0635.345 1.929 1.0365 2.595.6915.666 1.5105.999 2.4585.999 1.005 0 1.8435-.3345 2.514-1.005.435-.4365.687-1.044.7545-1.8225h-3.2685v-1.0815h4.3605c.045.2355.0645.462.0645.6795ZM78.0422 11.6055h-4.098v2.853h3.696V15.54h-3.696v2.853h4.098V19.5h-5.2545v-9h5.2545v1.1055ZM82.9185 19.5h-1.1564v-7.8945H79.248V10.5h6.1845v1.1055h-2.514V19.5ZM89.907 19.5v-9h1.1565v9H89.907ZM96.1922 19.5h-1.1565v-7.8945h-2.514V10.5h6.1845v1.1055h-2.514V19.5ZM110.413 18.3375c-.885.909-1.984 1.3635-3.3 1.3635-1.315 0-2.415-.4545-3.298-1.3635-.885-.909-1.326-2.022-1.326-3.3375 0-1.3155.441-2.4285 1.326-3.3375.883-.909 1.983-1.365 3.298-1.365 1.308 0 2.406.4575 3.294 1.371.888.9135 1.332 2.0235 1.332 3.3315 0 1.3155-.442 2.4285-1.326 3.3375Zm-5.745-.7545c.666.675 1.481 1.011 2.445 1.011.965 0 1.781-.3375 2.445-1.011.666-.675 1.001-1.536 1.001-2.583 0-1.047-.335-1.908-1.001-2.583-.664-.675-1.48-1.011-2.445-1.011-.964 0-1.779.3375-2.445 1.011-.664.675-.999 1.536-.999 2.583 0 1.047.335 1.908.999 2.583ZM113.362 19.5v-9h1.407l4.374 7.0005h.05l-.05-1.734V10.5h1.157v9h-1.208l-4.576-7.341h-.05l.05 1.734V19.5h-1.154Z"/>
  <path fill="#F17228" fill-rule="evenodd" d="M15.3531 11.7148c-.2516.4383-.3936 1.0108-.3936 1.6997v33.174c0 .6905.1422 1.2627.3941 1.7008L33.6393 30.001 15.3531 11.7148Zm.6909 37.2983c.6927.4219 1.6602.3809 2.727-.2241l21.4611-12.1952-5.8857-5.8857-18.3024 18.305Zm25.0908-12.9308 6.8877-3.9133c2.0955-1.1925 2.0955-3.141 0-4.332l-6.8906-3.9154-6.0785 6.0793 6.0814 6.0814Zm-.9047-12.6731L18.771 11.2155c-1.0668-.6062-2.0344-.6463-2.7271-.2241l18.3024 18.3024 5.8838-5.8846Z" clip-rule="evenodd"/>
</svg>
