<svg xmlns="http://www.w3.org/2000/svg" width="19" height="19" fill="none">
  <path fill="#fff" d="M0 9.14453V1.9375C0 1.02344.738281.25 1.6875.25h7.17188c.45703 0 .8789.210938 1.19532.527344l7.418 7.417966c.6679.66797.6679 1.75781 0 2.39059l-7.1719 7.1719c-.63283.668-1.72268.668-2.39064 0l-7.417972-7.418C.175781 10.0234 0 9.60156 0 9.14453ZM3.9375 2.5c-.94922 0-1.6875.77344-1.6875 1.6875 0 .94922.73828 1.6875 1.6875 1.6875.91406 0 1.6875-.73828 1.6875-1.6875 0-.91406-.77344-1.6875-1.6875-1.6875Z"/>
</svg>
