<svg aria-hidden="true" style="position: absolute; width: 0; height: 0; overflow: hidden;" version="1.1" xmlns="http://www.w3.org/2000/svg" xmlns:xlink="http://www.w3.org/1999/xlink">
<defs>
<symbol id="icon-bike" viewBox="0 0 51 32">
<path d="M40.533 10.667c5.25 0.075 9.525 4.35 9.6 9.525 0 5.4-4.35 9.75-9.75 9.675-5.175 0-9.45-4.275-9.45-9.525-0.075-2.925 1.275-5.55 3.3-7.35l-0.9-1.575c-2.925 2.4-4.35 5.85-4.2 9.375 0 1.050-0.825 1.875-1.8 1.875h-6.3c-1.125 4.2-4.875 7.2-9.3 7.2-5.4 0-9.75-4.35-9.6-9.825 0.075-5.025 4.125-9.15 9.225-9.3 1.050-0.075 2.1 0.075 3.075 0.375l0.825-1.575c-0.675-1.050-1.725-1.875-3.525-1.875h-4.2c-1.050 0-1.8-0.75-1.8-1.725-0.075-1.050 0.825-1.875 1.8-1.875h4.2c4.125 0 6.15 1.275 7.425 3h11.55l-1.425-2.4h-4.95c-0.675 0-1.2-0.525-1.2-1.2v-1.2c0-0.6 0.525-1.2 1.2-1.2h6c0.6 0 1.2 0.375 1.5 0.9l1.725 2.85 2.775-3.15c0.375-0.375 0.825-0.6 1.35-0.6h3.45c0.975 0 1.8 0.825 1.8 1.8v2.4c0 1.050-0.825 1.8-1.8 1.8h-6.225l2.475 4.125c0.975-0.3 2.1-0.525 3.15-0.525zM11.733 26.267c2.4 0 4.5-1.425 5.475-3.6h-6.075c-1.425 0-2.25-1.425-1.575-2.625l3.075-5.7c-0.3 0-0.6-0.075-0.9-0.075-3.375 0-6 2.7-6 6 0 3.375 2.625 6 6 6zM46.458 20.642c0.225-3.45-2.55-6.375-5.925-6.3-0.45 0-0.825 0-1.2 0.075l3.6 6.075c0.375 0.6 0.15 1.35-0.375 1.65l-1.050 0.6c-0.6 0.375-1.275 0.15-1.65-0.375l-3.675-6.225c-1.050 1.125-1.65 2.55-1.65 4.125 0 3.45 2.85 6.225 6.3 6 3-0.15 5.475-2.625 5.625-5.625z"></path>
</symbol>
<symbol id="icon-map-marker" viewBox="0 0 25 32">
<path d="M11.447 30.987c0.533 0.829 1.776 0.829 2.309 0 8.645-12.434 10.243-13.737 10.243-18.355 0-6.276-5.092-11.368-11.368-11.368-6.336 0-11.368 5.092-11.368 11.368 0 4.618 1.539 5.921 10.184 18.355zM12.632 17.368c-2.664 0-4.737-2.072-4.737-4.737 0-2.605 2.072-4.737 4.737-4.737 2.605 0 4.737 2.132 4.737 4.737 0 2.664-2.132 4.737-4.737 4.737z"></path>
</symbol>
<symbol id="icon-search" viewBox="0 0 32 32">
<path d="M29.901 26.651l-5.921-5.921c-0.296-0.237-0.651-0.414-1.007-0.414h-0.947c1.599-2.072 2.605-4.678 2.605-7.579 0-6.75-5.566-12.316-12.316-12.316-6.809 0-12.316 5.566-12.316 12.316 0 6.809 5.507 12.316 12.316 12.316 2.842 0 5.447-0.947 7.579-2.605v1.007c0 0.355 0.118 0.711 0.414 1.006l5.862 5.862c0.592 0.592 1.48 0.592 2.013 0l1.658-1.658c0.592-0.533 0.592-1.421 0.059-2.013zM12.316 20.316c-4.204 0-7.579-3.375-7.579-7.579 0-4.145 3.375-7.579 7.579-7.579 4.145 0 7.579 3.434 7.579 7.579 0 4.204-3.434 7.579-7.579 7.579z"></path>
</symbol>
<symbol id="icon-shoper" viewBox="0 0 27 32">
<path d="M20.842 9.895h5.684v16.105c0 2.664-2.132 4.737-4.737 4.737h-17.053c-2.664 0-4.737-2.072-4.737-4.737v-16.105h5.684v-1.895c0-4.145 3.375-7.579 7.579-7.579 4.145 0 7.579 3.434 7.579 7.579v1.895zM9.474 8v1.895h7.579v-1.895c0-2.072-1.717-3.789-3.789-3.789-2.132 0-3.789 1.717-3.789 3.789zM18.947 15.105c0.77 0 1.421-0.592 1.421-1.421 0-0.77-0.651-1.421-1.421-1.421-0.829 0-1.421 0.651-1.421 1.421 0 0.829 0.592 1.421 1.421 1.421zM7.579 15.105c0.77 0 1.421-0.592 1.421-1.421 0-0.77-0.651-1.421-1.421-1.421-0.829 0-1.421 0.651-1.421 1.421 0 0.829 0.592 1.421 1.421 1.421z"></path>
</symbol>
<symbol id="icon-user" viewBox="0 0 27 32">
<path d="M13.474 15.579c4.145 0 7.579-3.375 7.579-7.579 0-4.145-3.434-7.579-7.579-7.579-4.204 0-7.579 3.434-7.579 7.579 0 4.204 3.375 7.579 7.579 7.579zM18.743 17.474h-1.007c-1.303 0.651-2.724 0.947-4.263 0.947s-3.020-0.296-4.322-0.947h-1.007c-4.382 0-7.934 3.612-7.934 7.993v2.428c0 1.599 1.243 2.842 2.842 2.842h20.842c1.54 0 2.842-1.243 2.842-2.842v-2.428c0-4.382-3.612-7.993-7.993-7.993z"></path>
</symbol>
<symbol id="icon-logo" viewBox="0 0 30 32">
<path fill="#000" style="fill: var(--color1, #000)" d="M-1.757-2.447h35.84v11.595h-35.84v-11.595z"></path>
<path fill="#ffa833" style="fill: var(--color2, #ffa833)" d="M-1.757 16.527h35.84v17.569h-35.84v-17.569z"></path>
<path fill="#f17228" style="fill: var(--color3, #f17228)" d="M2.108 9.148h28.11c2.135 0 3.865 1.73 3.865 3.865s-1.73 3.865-3.865 3.865h-28.11c-2.135 0-3.865-1.73-3.865-3.865s1.73-3.865 3.865-3.865z"></path>
<path fill="#f58d00" style="fill: var(--color4, #f58d00)" d="M-24.596 24.257h34.083v7.73h-34.083v-7.73z"></path>
<path fill="#f58d00" style="fill: var(--color4, #f58d00)" d="M20.38 24.257h34.083v7.73h-34.083v-7.73z"></path>
<path fill="#fff" style="fill: var(--color5, #fff)" d="M9.65 2.632c0.105 0.275-0.256 0.668-0.807 0.878s-1.082 0.157-1.187-0.119c-0.105-0.275 0.256-0.668 0.807-0.878s1.082-0.157 1.187 0.119z"></path>
<path fill="#fff" style="fill: var(--color5, #fff)" d="M16 2.667c0 0.295-0.478 0.533-1.067 0.533s-1.067-0.239-1.067-0.533c0-0.295 0.478-0.533 1.067-0.533s1.067 0.239 1.067 0.533z"></path>
<path fill="#fff" style="fill: var(--color5, #fff)" d="M21.333 3.609c-0.139 0.26-0.673 0.245-1.192-0.032s-0.828-0.713-0.689-0.973c0.139-0.26 0.673-0.245 1.192 0.032s0.828 0.713 0.689 0.973z"></path>
</symbol>
<symbol id="icon-btn-right" viewBox="0 0 32 32">
<path fill="#ffb20e" style="fill: var(--color1, #ffb20e)" d="M16 0.211c8.72 0 15.789 7.069 15.789 15.789s-7.069 15.789-15.789 15.789c-8.72 0-15.789-7.069-15.789-15.789s7.069-15.789 15.789-15.789z"></path>
<path fill="#faaa01" style="fill: var(--color2, #faaa01)" d="M16 0.211c8.72 0 15.789 7.069 15.789 15.789s-7.069 15.789-15.789 15.789c-8.72 0-15.789-7.069-15.789-15.789s7.069-15.789 15.789-15.789z"></path>
<path fill="#fff" style="fill: var(--color3, #fff)" d="M19.813 16.303c0.244-0.244 0.244-0.651 0-0.896l-5.265-5.292c-0.271-0.244-0.678-0.244-0.923 0l-0.624 0.624c-0.244 0.244-0.244 0.651 0 0.923l4.179 4.179-4.179 4.206c-0.244 0.271-0.244 0.678 0 0.923l0.624 0.624c0.244 0.244 0.651 0.244 0.923 0l5.265-5.292z"></path>
</symbol>
<symbol id="icon-btn-left" viewBox="0 0 32 32">
<path fill="#ffb20e" style="fill: var(--color1, #ffb20e)" d="M16 0.211c-8.72 0-15.789 7.069-15.789 15.789s7.069 15.789 15.789 15.789c8.72 0 15.789-7.069 15.789-15.789s-7.069-15.789-15.789-15.789z"></path>
<path fill="#faaa01" style="fill: var(--color2, #faaa01)" d="M16 0.211c-8.72 0-15.789 7.069-15.789 15.789s7.069 15.789 15.789 15.789c8.72 0 15.789-7.069 15.789-15.789s-7.069-15.789-15.789-15.789z"></path>
<path fill="#fff" style="fill: var(--color3, #fff)" d="M12.187 16.303c-0.244-0.244-0.244-0.651 0-0.896l5.265-5.292c0.271-0.244 0.678-0.244 0.923 0l0.624 0.624c0.244 0.244 0.244 0.651 0 0.923l-4.179 4.179 4.179 4.206c0.244 0.271 0.244 0.678 0 0.923l-0.624 0.624c-0.244 0.244-0.651 0.244-0.923 0l-5.265-5.292z"></path>
</symbol>
<symbol id="icon-time" viewBox="0 0 32 32">
<path d="M16 0.944c8.563 0 15.5 6.938 15.5 15.5s-6.938 15.5-15.5 15.5c-8.563 0-15.5-6.938-15.5-15.5s6.938-15.5 15.5-15.5zM21.75 20.507c0.125-0.125 0.25-0.375 0.25-0.625 0-0.313-0.188-0.563-0.375-0.75l-3.625-2.687v-9c0-0.5-0.5-1-1-1h-2c-0.563 0-1 0.5-1 1v9.75c0 0.812 0.313 1.5 0.938 1.937l4.188 3.125c0.125 0.125 0.375 0.25 0.563 0.25 0.375 0 0.625-0.188 0.812-0.438l1.25-1.563z"></path>
</symbol>
<symbol id="icon-star" viewBox="0 0 33 32">
<path d="M14.839 2.031c0.687-1.375 2.635-1.318 3.266 0l3.781 7.62 8.365 1.203c1.49 0.229 2.063 2.063 0.974 3.151l-6.016 5.901 1.432 8.307c0.229 1.489-1.375 2.635-2.693 1.948l-7.448-3.953-7.505 3.953c-1.318 0.687-2.922-0.458-2.693-1.948l1.432-8.307-6.016-5.901c-1.089-1.089-0.516-2.922 0.974-3.151l8.422-1.203 3.724-7.62z"></path>
</symbol>
<symbol id="icon-bookmark" viewBox="0 0 32 32">
<path d="M0 15.401v-12.138c0-1.539 1.243-2.842 2.842-2.842h12.079c0.77 0 1.48 0.355 2.013 0.888l12.493 12.493c1.125 1.125 1.125 2.961 0 4.026l-12.079 12.079c-1.066 1.125-2.901 1.125-4.026 0l-12.493-12.493c-0.533-0.533-0.829-1.243-0.829-2.013zM6.632 4.211c-1.599 0-2.842 1.303-2.842 2.842 0 1.599 1.243 2.842 2.842 2.842 1.539 0 2.842-1.243 2.842-2.842 0-1.539-1.303-2.842-2.842-2.842z"></path>
</symbol>

</defs>
</svg>
