<svg xmlns="http://www.w3.org/2000/svg" width="28" height="30" fill="none">
  <mask id="a" width="28" height="30" x="0" y="0" maskUnits="userSpaceOnUse" style="mask-type:alpha">
    <path fill="#C4C4C4" d="M8.89428 26.3647c0 2.0013-1.62231 3.6236-3.62353 3.6236s-3.62353-1.6223-3.62353-3.6236c0-2.0012 1.62231-3.6235 3.62353-3.6235s3.62353 1.6223 3.62353 3.6235ZM26.3533 26.3647c0 2.0013-1.6223 3.6236-3.6236 3.6236-2.0012 0-3.6235-1.6223-3.6235-3.6236 0-2.0012 1.6223-3.6235 3.6235-3.6235 2.0013 0 3.6236 1.6223 3.6236 3.6235Z"/>
    <path fill="#C4C4C4" fill-rule="evenodd" d="M25.1913 23.7058c.2469.2287.2181.6151-.0405.8305-1.3706 1.1416-3.1334 1.8284-5.0567 1.8284h-.3292c-.3639 0-.6651-.2976-.5997-.6556.3085-1.6882 1.787-2.9679 3.5644-2.9679.9504 0 1.8154.3659 2.4617.9646Zm1.9074-1.5776c-.2001.3811-.7143.4148-1.0483.1435-.9064-.7363-2.0621-1.1775-3.3208-1.1775-2.6882 0-4.9063 2.0124-5.23 4.613-.0449.361-.3356.6575-.6994.6575H11.2c-.3639 0-.6545-.2965-.6994-.6575-.3237-2.6006-2.54184-4.613-5.23001-4.613-1.25879 0-2.41451.4412-3.3209 1.1776-.33406.2713-.84824.2376-1.048288-.1435C.325709 21.0317 0 19.7833 0 18.4588v-1.6472c0-.3638.294965-.6588.658823-.6588H27.3412c.3638 0 .6588.295.6588.6588v1.6472c0 1.3244-.3257 2.5728-.9013 3.6694ZM28 13.8469c0 .3639-.295.6588-.6588.6588H.658824C.294965 14.5057 0 14.2108 0 13.8469V9.89402c0-.36386.294965-.65882.658823-.65882H27.3412c.3638 0 .6588.29496.6588.65882v3.95288ZM7.90588.0117188C3.883.0117188.561907 3.0164.0643695 6.904c-.0475339.37141.2543085.68414.6287525.68414H27.3069c.3744 0 .6763-.31273.6287-.68414C27.4381 3.0164 24.117.0117188 20.0941.0117188H7.90588ZM5.27059 22.7412c1.77736 0 3.25585 1.2797 3.56437 2.9679.06541.358-.23582.6556-.59968.6556h-.3294c-1.9232 0-3.68601-.6868-5.0566-1.8283-.25854-.2154-.28735-.6019-.0405-.8305.64631-.5987 1.51132-.9647 2.46181-.9647Z" clip-rule="evenodd"/>
  </mask>
  <g mask="url(#a)">
    <path fill="url(#b)" d="M-1.64722-2.29395h33.6v10.8706h-33.6z"/>
    <path fill="#FFA833" d="M-1.64722 15.4941h33.6v16.4706h-33.6z"/>
    <rect width="33.6" height="7.24706" x="-1.64722" y="8.57666" fill="#F17228" rx="3.62353"/>
    <path fill="#F58D00" d="M-23.0586 22.7412H8.8943v7.24706h-31.9529zM19.1062 22.7412h31.9529v7.24706H19.1062z"/>
    <ellipse cx="8.11249" cy="2.82316" fill="#fff" rx="1" ry=".5" transform="rotate(-20.8548 8.11249 2.82316)"/>
    <ellipse cx="14" cy="2.5" fill="#fff" rx="1" ry=".5"/>
    <ellipse cx="19.1176" cy="2.91225" fill="#fff" rx="1" ry=".5" transform="rotate(28.1155 19.1176 2.91225)"/>
  </g>
  <defs>
    <linearGradient id="b" x1="14.9999" x2="14.9999" y1="-.5" y2="17" gradientUnits="userSpaceOnUse">
      <stop stop-color="#FFD16D"/>
      <stop offset="1" stop-color="#FF7A00"/>
    </linearGradient>
  </defs>
</svg>
