<svg aria-hidden="true" style="position: absolute; width: 0; height: 0; overflow: hidden;" version="1.1" xmlns="http://www.w3.org/2000/svg" xmlns:xlink="http://www.w3.org/1999/xlink">
<defs>
<symbol id="icon-bike" viewBox="0 0 51 32">
<path d="M40.533 10.667c5.25 0.075 9.525 4.35 9.6 9.525 0 5.4-4.35 9.75-9.75 9.675-5.175 0-9.45-4.275-9.45-9.525-0.075-2.925 1.275-5.55 3.3-7.35l-0.9-1.575c-2.925 2.4-4.35 5.85-4.2 9.375 0 1.050-0.825 1.875-1.8 1.875h-6.3c-1.125 4.2-4.875 7.2-9.3 7.2-5.4 0-9.75-4.35-9.6-9.825 0.075-5.025 4.125-9.15 9.225-9.3 1.050-0.075 2.1 0.075 3.075 0.375l0.825-1.575c-0.675-1.050-1.725-1.875-3.525-1.875h-4.2c-1.050 0-1.8-0.75-1.8-1.725-0.075-1.050 0.825-1.875 1.8-1.875h4.2c4.125 0 6.15 1.275 7.425 3h11.55l-1.425-2.4h-4.95c-0.675 0-1.2-0.525-1.2-1.2v-1.2c0-0.6 0.525-1.2 1.2-1.2h6c0.6 0 1.2 0.375 1.5 0.9l1.725 2.85 2.775-3.15c0.375-0.375 0.825-0.6 1.35-0.6h3.45c0.975 0 1.8 0.825 1.8 1.8v2.4c0 1.050-0.825 1.8-1.8 1.8h-6.225l2.475 4.125c0.975-0.3 2.1-0.525 3.15-0.525zM11.733 26.267c2.4 0 4.5-1.425 5.475-3.6h-6.075c-1.425 0-2.25-1.425-1.575-2.625l3.075-5.7c-0.3 0-0.6-0.075-0.9-0.075-3.375 0-6 2.7-6 6 0 3.375 2.625 6 6 6zM46.458 20.642c0.225-3.45-2.55-6.375-5.925-6.3-0.45 0-0.825 0-1.2 0.075l3.6 6.075c0.375 0.6 0.15 1.35-0.375 1.65l-1.050 0.6c-0.6 0.375-1.275 0.15-1.65-0.375l-3.675-6.225c-1.050 1.125-1.65 2.55-1.65 4.125 0 3.45 2.85 6.225 6.3 6 3-0.15 5.475-2.625 5.625-5.625z"></path>
</symbol>
<symbol id="icon-map-marker" viewBox="0 0 25 32">
<path d="M11.447 30.987c0.533 0.829 1.776 0.829 2.309 0 8.645-12.434 10.243-13.737 10.243-18.355 0-6.276-5.092-11.368-11.368-11.368-6.336 0-11.368 5.092-11.368 11.368 0 4.618 1.539 5.921 10.184 18.355zM12.632 17.368c-2.664 0-4.737-2.072-4.737-4.737 0-2.605 2.072-4.737 4.737-4.737 2.605 0 4.737 2.132 4.737 4.737 0 2.664-2.132 4.737-4.737 4.737z"></path>
</symbol>
<symbol id="icon-search" viewBox="0 0 32 32">
<path d="M29.901 26.651l-5.921-5.921c-0.296-0.237-0.651-0.414-1.007-0.414h-0.947c1.599-2.072 2.605-4.678 2.605-7.579 0-6.75-5.566-12.316-12.316-12.316-6.809 0-12.316 5.566-12.316 12.316 0 6.809 5.507 12.316 12.316 12.316 2.842 0 5.447-0.947 7.579-2.605v1.007c0 0.355 0.118 0.711 0.414 1.006l5.862 5.862c0.592 0.592 1.48 0.592 2.013 0l1.658-1.658c0.592-0.533 0.592-1.421 0.059-2.013zM12.316 20.316c-4.204 0-7.579-3.375-7.579-7.579 0-4.145 3.375-7.579 7.579-7.579 4.145 0 7.579 3.434 7.579 7.579 0 4.204-3.434 7.579-7.579 7.579z"></path>
</symbol>
<symbol id="icon-shoper" viewBox="0 0 27 32">
<path d="M20.842 9.895h5.684v16.105c0 2.664-2.132 4.737-4.737 4.737h-17.053c-2.664 0-4.737-2.072-4.737-4.737v-16.105h5.684v-1.895c0-4.145 3.375-7.579 7.579-7.579 4.145 0 7.579 3.434 7.579 7.579v1.895zM9.474 8v1.895h7.579v-1.895c0-2.072-1.717-3.789-3.789-3.789-2.132 0-3.789 1.717-3.789 3.789zM18.947 15.105c0.77 0 1.421-0.592 1.421-1.421 0-0.77-0.651-1.421-1.421-1.421-0.829 0-1.421 0.651-1.421 1.421 0 0.829 0.592 1.421 1.421 1.421zM7.579 15.105c0.77 0 1.421-0.592 1.421-1.421 0-0.77-0.651-1.421-1.421-1.421-0.829 0-1.421 0.651-1.421 1.421 0 0.829 0.592 1.421 1.421 1.421z"></path>
</symbol>
<symbol id="icon-user" viewBox="0 0 27 32">
<path d="M13.474 15.579c4.145 0 7.579-3.375 7.579-7.579 0-4.145-3.434-7.579-7.579-7.579-4.204 0-7.579 3.434-7.579 7.579 0 4.204 3.375 7.579 7.579 7.579zM18.743 17.474h-1.007c-1.303 0.651-2.724 0.947-4.263 0.947s-3.020-0.296-4.322-0.947h-1.007c-4.382 0-7.934 3.612-7.934 7.993v2.428c0 1.599 1.243 2.842 2.842 2.842h20.842c1.54 0 2.842-1.243 2.842-2.842v-2.428c0-4.382-3.612-7.993-7.993-7.993z"></path>
</symbol>
<symbol id="icon-logo" viewBox="0 0 30 32">
<path fill="#000" style="fill: var(--color1, #000)" d="M-1.757-2.447h35.84v11.595h-35.84v-11.595z"></path>
<path fill="#ffa833" style="fill: var(--color2, #ffa833)" d="M-1.757 16.527h35.84v17.569h-35.84v-17.569z"></path>
<path fill="#f17228" style="fill: var(--color3, #f17228)" d="M2.108 9.148h28.11c2.135 0 3.865 1.73 3.865 3.865s-1.73 3.865-3.865 3.865h-28.11c-2.135 0-3.865-1.73-3.865-3.865s1.73-3.865 3.865-3.865z"></path>
<path fill="#f58d00" style="fill: var(--color4, #f58d00)" d="M-24.596 24.257h34.083v7.73h-34.083v-7.73z"></path>
<path fill="#f58d00" style="fill: var(--color4, #f58d00)" d="M20.38 24.257h34.083v7.73h-34.083v-7.73z"></path>
<path fill="#fff" style="fill: var(--color5, #fff)" d="M9.65 2.632c0.105 0.275-0.256 0.668-0.807 0.878s-1.082 0.157-1.187-0.119c-0.105-0.275 0.256-0.668 0.807-0.878s1.082-0.157 1.187 0.119z"></path>
<path fill="#fff" style="fill: var(--color5, #fff)" d="M16 2.667c0 0.295-0.478 0.533-1.067 0.533s-1.067-0.239-1.067-0.533c0-0.295 0.478-0.533 1.067-0.533s1.067 0.239 1.067 0.533z"></path>
<path fill="#fff" style="fill: var(--color5, #fff)" d="M21.333 3.609c-0.139 0.26-0.673 0.245-1.192-0.032s-0.828-0.713-0.689-0.973c0.139-0.26 0.673-0.245 1.192 0.032s0.828 0.713 0.689 0.973z"></path>
</symbol>
<symbol id="icon-btn-right" viewBox="0 0 32 32">
<path fill="#ffb20e" style="fill: var(--color1, #ffb20e)" d="M16 0.211c8.72 0 15.789 7.069 15.789 15.789s-7.069 15.789-15.789 15.789c-8.72 0-15.789-7.069-15.789-15.789s7.069-15.789 15.789-15.789z"></path>
<path fill="#faaa01" style="fill: var(--color2, #faaa01)" d="M16 0.211c8.72 0 15.789 7.069 15.789 15.789s-7.069 15.789-15.789 15.789c-8.72 0-15.789-7.069-15.789-15.789s7.069-15.789 15.789-15.789z"></path>
<path fill="#fff" style="fill: var(--color3, #fff)" d="M19.813 16.303c0.244-0.244 0.244-0.651 0-0.896l-5.265-5.292c-0.271-0.244-0.678-0.244-0.923 0l-0.624 0.624c-0.244 0.244-0.244 0.651 0 0.923l4.179 4.179-4.179 4.206c-0.244 0.271-0.244 0.678 0 0.923l0.624 0.624c0.244 0.244 0.651 0.244 0.923 0l5.265-5.292z"></path>
</symbol>
<symbol id="icon-btn-left" viewBox="0 0 32 32">
<path fill="#ffb20e" style="fill: var(--color1, #ffb20e)" d="M16 0.211c-8.72 0-15.789 7.069-15.789 15.789s7.069 15.789 15.789 15.789c8.72 0 15.789-7.069 15.789-15.789s-7.069-15.789-15.789-15.789z"></path>
<path fill="#faaa01" style="fill: var(--color2, #faaa01)" d="M16 0.211c-8.72 0-15.789 7.069-15.789 15.789s7.069 15.789 15.789 15.789c8.72 0 15.789-7.069 15.789-15.789s-7.069-15.789-15.789-15.789z"></path>
<path fill="#fff" style="fill: var(--color3, #fff)" d="M12.187 16.303c-0.244-0.244-0.244-0.651 0-0.896l5.265-5.292c0.271-0.244 0.678-0.244 0.923 0l0.624 0.624c0.244 0.244 0.244 0.651 0 0.923l-4.179 4.179 4.179 4.206c0.244 0.271 0.244 0.678 0 0.923l-0.624 0.624c-0.244 0.244-0.651 0.244-0.923 0l-5.265-5.292z"></path>
</symbol>
<symbol id="icon-time" viewBox="0 0 32 32">
<path d="M16 0.944c8.563 0 15.5 6.938 15.5 15.5s-6.938 15.5-15.5 15.5c-8.563 0-15.5-6.938-15.5-15.5s6.938-15.5 15.5-15.5zM21.75 20.507c0.125-0.125 0.25-0.375 0.25-0.625 0-0.313-0.188-0.563-0.375-0.75l-3.625-2.687v-9c0-0.5-0.5-1-1-1h-2c-0.563 0-1 0.5-1 1v9.75c0 0.812 0.313 1.5 0.938 1.937l4.188 3.125c0.125 0.125 0.375 0.25 0.563 0.25 0.375 0 0.625-0.188 0.812-0.438l1.25-1.563z"></path>
</symbol>
<symbol id="icon-star" viewBox="0 0 33 32">
<path d="M14.839 2.031c0.687-1.375 2.635-1.318 3.266 0l3.781 7.62 8.365 1.203c1.49 0.229 2.063 2.063 0.974 3.151l-6.016 5.901 1.432 8.307c0.229 1.489-1.375 2.635-2.693 1.948l-7.448-3.953-7.505 3.953c-1.318 0.687-2.922-0.458-2.693-1.948l1.432-8.307-6.016-5.901c-1.089-1.089-0.516-2.922 0.974-3.151l8.422-1.203 3.724-7.62z"></path>
</symbol>
<symbol id="icon-bookmark" viewBox="0 0 32 32">
<path d="M0 15.401v-12.138c0-1.539 1.243-2.842 2.842-2.842h12.079c0.77 0 1.48 0.355 2.013 0.888l12.493 12.493c1.125 1.125 1.125 2.961 0 4.026l-12.079 12.079c-1.066 1.125-2.901 1.125-4.026 0l-12.493-12.493c-0.533-0.533-0.829-1.243-0.829-2.013zM6.632 4.211c-1.599 0-2.842 1.303-2.842 2.842 0 1.599 1.243 2.842 2.842 2.842 1.539 0 2.842-1.243 2.842-2.842 0-1.539-1.303-2.842-2.842-2.842z"></path>
</symbol>
<symbol id="icon-googleplay" viewBox="0 0 108 32">
<path fill="#fff" style="fill: var(--color1, #fff)" d="M2.667 0h102.667c1.473 0 2.667 1.194 2.667 2.667v26.667c0 1.473-1.194 2.667-2.667 2.667h-102.667c-1.473 0-2.667-1.194-2.667-2.667v-26.667c0-1.473 1.194-2.667 2.667-2.667z"></path>
<path fill="#212121" style="fill: var(--color2, #212121)" d="M54.509 17.401c-1.882 0-3.415 1.431-3.415 3.402 0 1.959 1.534 3.402 3.415 3.402s3.416-1.443 3.416-3.402c-0.001-1.971-1.534-3.402-3.416-3.402zM54.509 22.866c-1.031 0-1.92-0.85-1.92-2.062 0-1.225 0.89-2.062 1.92-2.062s1.92 0.838 1.92 2.062c0 1.211-0.889 2.062-1.92 2.062zM47.058 17.401c-1.882 0-3.415 1.431-3.415 3.402 0 1.959 1.534 3.402 3.415 3.402s3.416-1.443 3.416-3.402c0-1.971-1.534-3.402-3.416-3.402zM47.058 22.866c-1.031 0-1.92-0.85-1.92-2.062 0-1.225 0.89-2.062 1.92-2.062s1.92 0.838 1.92 2.062c0.001 1.211-0.889 2.062-1.92 2.062zM38.195 18.446v1.443h3.454c-0.103 0.812-0.374 1.405-0.786 1.817-0.502 0.502-1.289 1.057-2.668 1.057-2.126 0-3.789-1.714-3.789-3.841s1.662-3.841 3.789-3.841c1.147 0 1.985 0.451 2.603 1.031l1.018-1.018c-0.864-0.825-2.010-1.456-3.622-1.456-2.913 0-5.362 2.371-5.362 5.284s2.449 5.284 5.362 5.284c1.572 0 2.758-0.516 3.686-1.482 0.954-0.954 1.25-2.294 1.25-3.377 0-0.334-0.026-0.644-0.078-0.902l-4.858 0.001zM74.442 19.567c-0.283-0.76-1.147-2.166-2.913-2.166-1.753 0-3.21 1.379-3.21 3.402 0 1.907 1.444 3.402 3.377 3.402 1.559 0 2.461-0.954 2.836-1.508l-1.16-0.774c-0.386 0.567-0.915 0.941-1.676 0.941s-1.302-0.348-1.65-1.031l4.549-1.882-0.154-0.386zM69.802 20.701c-0.038-1.315 1.018-1.985 1.779-1.985 0.593 0 1.095 0.297 1.263 0.722l-3.042 1.263zM66.103 24h1.494v-10.001h-1.494v10.001zM63.653 18.162h-0.051c-0.335-0.4-0.98-0.761-1.791-0.761-1.702 0-3.261 1.495-3.261 3.416 0 1.907 1.559 3.39 3.261 3.39 0.812 0 1.456-0.361 1.791-0.773h0.051v0.49c0 1.302-0.696 1.998-1.817 1.998-0.915 0-1.483-0.657-1.715-1.211l-1.301 0.542c0.373 0.902 1.365 2.010 3.016 2.010 1.753 0 3.235-1.031 3.235-3.545v-6.109h-1.418v0.554h-0.001zM61.94 22.866c-1.031 0-1.894-0.864-1.894-2.050 0-1.199 0.863-2.075 1.894-2.075 1.018 0 1.817 0.876 1.817 2.075 0 1.186-0.799 2.050-1.817 2.050zM81.445 13.999h-3.577v10.001h1.492v-3.789h2.084c1.654 0 3.282-1.198 3.282-3.106s-1.626-3.106-3.281-3.106zM81.483 18.819h-2.123v-3.428h2.123c1.116 0 1.749 0.924 1.749 1.714 0 0.774-0.634 1.714-1.749 1.714zM90.709 17.383c-1.081 0-2.2 0.476-2.663 1.531l1.325 0.553c0.283-0.553 0.811-0.734 1.364-0.734 0.772 0 1.557 0.463 1.57 1.286v0.103c-0.27-0.154-0.85-0.386-1.557-0.386-1.428 0-2.883 0.785-2.883 2.251 0 1.338 1.171 2.2 2.483 2.2 1.003 0 1.557-0.45 1.904-0.978h0.051v0.772h1.442v-3.834c0.001-1.774-1.325-2.765-3.036-2.765zM90.528 22.864c-0.488 0-1.171-0.245-1.171-0.85 0-0.772 0.85-1.068 1.583-1.068 0.655 0 0.965 0.142 1.363 0.334-0.116 0.927-0.914 1.583-1.776 1.583zM98.994 17.602l-1.711 4.336h-0.051l-1.776-4.336h-1.608l2.663 6.060-1.518 3.371h1.557l4.105-9.431h-1.66zM85.549 24h1.492v-10.001h-1.492v10.001z"></path>
<path fill="#616161" style="fill: var(--color3, #616161)" d="M37.934 8.194c0 0.67-0.198 1.204-0.596 1.602-0.451 0.474-1.040 0.71-1.763 0.71-0.693 0-1.282-0.24-1.766-0.72s-0.727-1.076-0.727-1.786c0-0.711 0.242-1.306 0.727-1.786s1.074-0.721 1.766-0.721c0.344 0 0.673 0.067 0.985 0.201s0.563 0.313 0.75 0.536l-0.422 0.422c-0.318-0.38-0.755-0.57-1.314-0.57-0.506 0-0.942 0.178-1.311 0.533s-0.553 0.817-0.553 1.384c0 0.567 0.184 1.029 0.553 1.384s0.806 0.533 1.311 0.533c0.536 0 0.983-0.178 1.341-0.536 0.232-0.233 0.366-0.557 0.402-0.972h-1.743v-0.577h2.326c0.024 0.126 0.034 0.246 0.034 0.362zM41.623 6.19h-2.186v1.522h1.971v0.577h-1.971v1.522h2.186v0.59h-2.802v-4.8h2.802v0.59zM44.223 10.4h-0.617v-4.21h-1.341v-0.59h3.298v0.59h-1.341v4.21zM47.95 10.4v-4.8h0.617v4.8h-0.617zM51.303 10.4h-0.617v-4.21h-1.341v-0.59h3.298v0.59h-1.341v4.21zM58.887 9.78c-0.472 0.485-1.058 0.727-1.76 0.727s-1.288-0.242-1.759-0.727c-0.472-0.485-0.707-1.078-0.707-1.78s0.235-1.295 0.707-1.78c0.471-0.485 1.058-0.728 1.759-0.728 0.698 0 1.283 0.244 1.757 0.731s0.71 1.079 0.71 1.777c0 0.702-0.236 1.295-0.707 1.78zM55.823 9.378c0.355 0.36 0.79 0.539 1.304 0.539s0.95-0.18 1.304-0.539c0.355-0.36 0.534-0.819 0.534-1.378s-0.179-1.018-0.534-1.378c-0.354-0.36-0.789-0.539-1.304-0.539s-0.949 0.18-1.304 0.539c-0.354 0.36-0.533 0.819-0.533 1.378s0.179 1.018 0.533 1.378zM60.46 10.4v-4.8h0.75l2.333 3.734h0.027l-0.027-0.925v-2.809h0.617v4.8h-0.644l-2.441-3.915h-0.027l0.027 0.925v2.99h-0.615z"></path>
<path fill="#f17228" style="fill: var(--color4, #f17228)" d="M8.188 6.248c-0.134 0.234-0.21 0.539-0.21 0.907v17.693c0 0.368 0.076 0.673 0.21 0.907l9.752-9.754-9.753-9.753zM8.557 26.14c0.369 0.225 0.885 0.203 1.454-0.12l11.446-6.504-3.139-3.139-9.761 9.763zM21.939 19.244l3.673-2.087c1.118-0.636 1.118-1.675 0-2.31l-3.675-2.088-3.242 3.242 3.243 3.243zM21.456 12.485l-11.445-6.503c-0.569-0.323-1.085-0.345-1.454-0.12l9.761 9.761 3.138-3.138z"></path>
</symbol>
<symbol id="icon-app" viewBox="0 0 97 32">
<path fill="#fff" style="fill: var(--color1, #fff)" d="M4 0h88.533c2.062 0 3.733 1.671 3.733 3.733v24.533c0 2.062-1.671 3.733-3.733 3.733h-88.533c-2.062 0-3.733-1.671-3.733-3.733v-24.533c0-2.062 1.671-3.733 3.733-3.733z"></path>
<path fill="#212121" style="fill: var(--color2, #212121)" d="M65.487 15.361v1.833h-1.149v1.202h1.149v4.084c0 1.395 0.631 1.952 2.218 1.952 0.279 0 0.545-0.033 0.777-0.073v-1.189c-0.199 0.020-0.325 0.033-0.545 0.033-0.71 0-1.022-0.332-1.022-1.089v-3.719h1.567v-1.202h-1.567v-1.833h-1.428zM72.525 24.531c2.111 0 3.406-1.414 3.406-3.759 0-2.331-1.301-3.752-3.406-3.752-2.111 0-3.413 1.421-3.413 3.752 0 2.344 1.295 3.759 3.413 3.759zM72.525 23.263c-1.242 0-1.939-0.91-1.939-2.49 0-1.567 0.698-2.484 1.939-2.484 1.235 0 1.939 0.916 1.939 2.484 0 1.574-0.704 2.49-1.939 2.49zM77.040 24.392h1.428v-4.27c0-1.016 0.764-1.7 1.846-1.7 0.252 0 0.677 0.047 0.797 0.086v-1.408c-0.153-0.040-0.425-0.060-0.637-0.060-0.943 0-1.747 0.518-1.953 1.228h-0.106v-1.109h-1.374v7.232zM84.655 18.236c1.056 0 1.747 0.737 1.78 1.873h-3.652c0.079-1.129 0.817-1.873 1.873-1.873zM86.429 22.44c-0.266 0.564-0.857 0.877-1.72 0.877-1.142 0-1.879-0.804-1.926-2.072v-0.080h5.107v-0.498c0-2.271-1.215-3.646-3.227-3.646-2.039 0-3.334 1.468-3.334 3.779s1.268 3.732 3.34 3.732c1.654 0 2.809-0.797 3.134-2.092h-1.374zM56.124 21.721c0.11 1.776 1.59 2.911 3.793 2.911 2.354 0 3.827-1.191 3.827-3.090 0-1.494-0.84-2.32-2.877-2.794l-1.094-0.268c-1.294-0.303-1.817-0.709-1.817-1.418 0-0.895 0.812-1.48 2.030-1.48 1.156 0 1.955 0.571 2.099 1.487h1.501c-0.090-1.673-1.563-2.849-3.579-2.849-2.168 0-3.613 1.177-3.613 2.946 0 1.459 0.819 2.326 2.615 2.746l1.28 0.31c1.315 0.31 1.893 0.764 1.893 1.521 0 0.881-0.908 1.521-2.147 1.521-1.329 0-2.251-0.599-2.382-1.542h-1.528zM41.335 17.041c-0.983 0-1.833 0.491-2.271 1.315h-0.106v-1.195h-1.375v9.636h1.428v-3.5h0.113c0.379 0.764 1.195 1.215 2.225 1.215 1.826 0 2.988-1.441 2.988-3.739s-1.162-3.732-3.002-3.732zM40.93 23.23c-1.195 0-1.946-0.943-1.946-2.45 0-1.514 0.75-2.457 1.952-2.457 1.209 0 1.932 0.923 1.932 2.45 0 1.534-0.724 2.457-1.939 2.457zM49.332 17.041c-0.983 0-1.833 0.491-2.271 1.315h-0.106v-1.195h-1.375v9.636h1.428v-3.5h0.113c0.379 0.764 1.195 1.215 2.225 1.215 1.826 0 2.988-1.441 2.988-3.739s-1.162-3.732-3.002-3.732zM48.927 23.23c-1.195 0-1.946-0.943-1.946-2.45 0-1.514 0.75-2.457 1.952-2.457 1.209 0 1.932 0.923 1.932 2.45 0 1.534-0.724 2.457-1.939 2.457zM35.021 24.392h1.638l-3.586-9.932h-1.659l-3.586 9.932h1.583l0.915-2.636h3.786l0.909 2.636zM32.165 16.263h0.117l1.438 4.198h-3.001l1.445-4.198z"></path>
<path fill="#616161" style="fill: var(--color3, #616161)" d="M28.788 6.969v4.791h1.73c1.428 0 2.255-0.88 2.255-2.41 0-1.507-0.833-2.381-2.255-2.381h-1.73zM29.531 7.646h0.903c0.993 0 1.58 0.631 1.58 1.713 0 1.099-0.578 1.723-1.58 1.723h-0.903v-3.437zM35.304 11.83c1.056 0 1.703-0.707 1.703-1.879 0-1.165-0.651-1.876-1.703-1.876-1.056 0-1.707 0.711-1.707 1.876 0 1.172 0.647 1.879 1.707 1.879zM35.304 11.196c-0.621 0-0.97-0.455-0.97-1.245 0-0.784 0.349-1.242 0.97-1.242 0.618 0 0.97 0.458 0.97 1.242 0 0.787-0.352 1.245-0.97 1.245zM42.521 8.144h-0.714l-0.644 2.759h-0.056l-0.744-2.759h-0.684l-0.744 2.759h-0.053l-0.647-2.759h-0.724l0.996 3.616h0.734l0.744-2.663h0.056l0.747 2.663h0.74l0.993-3.616zM43.343 11.76h0.714v-2.115c0-0.564 0.335-0.916 0.863-0.916s0.78 0.289 0.78 0.87v2.162h0.714v-2.341c0-0.86-0.445-1.345-1.252-1.345-0.545 0-0.903 0.242-1.079 0.644h-0.053v-0.574h-0.687v3.616zM47.539 11.76h0.714v-5.027h-0.714v5.027zM50.937 11.83c1.056 0 1.703-0.707 1.703-1.879 0-1.165-0.651-1.876-1.703-1.876-1.056 0-1.707 0.711-1.707 1.876 0 1.172 0.647 1.879 1.707 1.879zM50.937 11.196c-0.621 0-0.97-0.455-0.97-1.245 0-0.784 0.349-1.242 0.97-1.242 0.618 0 0.969 0.458 0.969 1.242 0 0.787-0.352 1.245-0.969 1.245zM54.767 11.219c-0.388 0-0.67-0.189-0.67-0.515 0-0.319 0.226-0.488 0.724-0.521l0.883-0.056v0.302c0 0.448-0.398 0.79-0.937 0.79zM54.585 11.82c0.475 0 0.87-0.206 1.086-0.568h0.057v0.508h0.687v-2.47c0-0.764-0.511-1.215-1.418-1.215-0.82 0-1.404 0.398-1.477 1.019h0.691c0.079-0.256 0.355-0.402 0.754-0.402 0.488 0 0.74 0.216 0.74 0.598v0.312l-0.98 0.056c-0.86 0.053-1.345 0.428-1.345 1.079 0 0.661 0.508 1.082 1.205 1.082zM58.837 11.82c0.498 0 0.92-0.236 1.136-0.631h0.056v0.571h0.684v-5.027h-0.714v1.986h-0.053c-0.196-0.398-0.614-0.634-1.109-0.634-0.913 0-1.5 0.724-1.5 1.866 0 1.146 0.581 1.869 1.5 1.869zM59.039 8.725c0.598 0 0.973 0.475 0.973 1.229 0 0.757-0.372 1.225-0.973 1.225-0.604 0-0.966-0.462-0.966-1.228 0-0.76 0.365-1.225 0.966-1.225zM65.342 11.83c1.055 0 1.703-0.707 1.703-1.879 0-1.165-0.651-1.876-1.703-1.876-1.056 0-1.707 0.711-1.707 1.876 0 1.172 0.647 1.879 1.707 1.879zM65.342 11.196c-0.621 0-0.97-0.455-0.97-1.245 0-0.784 0.348-1.242 0.97-1.242 0.618 0 0.97 0.458 0.97 1.242 0 0.787-0.352 1.245-0.97 1.245zM67.99 11.76h0.714v-2.115c0-0.564 0.335-0.916 0.863-0.916s0.78 0.289 0.78 0.87v2.162h0.714v-2.341c0-0.86-0.445-1.345-1.252-1.345-0.545 0-0.903 0.242-1.079 0.644h-0.053v-0.574h-0.687v3.616zM74.349 7.244v0.916h-0.574v0.601h0.574v2.042c0 0.697 0.316 0.976 1.109 0.976 0.139 0 0.272-0.017 0.388-0.037v-0.594c-0.1 0.010-0.163 0.017-0.272 0.017-0.355 0-0.511-0.166-0.511-0.544v-1.859h0.783v-0.601h-0.783v-0.916h-0.714zM76.805 11.76h0.714v-2.112c0-0.548 0.325-0.916 0.91-0.916 0.505 0 0.774 0.292 0.774 0.87v2.158h0.714v-2.334c0-0.86-0.475-1.348-1.245-1.348-0.545 0-0.926 0.242-1.102 0.647h-0.057v-1.992h-0.707v5.027zM82.492 8.682c0.528 0 0.873 0.369 0.89 0.936h-1.826c0.040-0.564 0.409-0.936 0.937-0.936zM83.378 10.784c-0.133 0.282-0.428 0.438-0.86 0.438-0.571 0-0.94-0.402-0.963-1.036v-0.040h2.554v-0.249c0-1.136-0.608-1.823-1.614-1.823-1.019 0-1.667 0.734-1.667 1.889s0.634 1.866 1.67 1.866c0.827 0 1.405-0.398 1.567-1.046h-0.687z"></path>
<path fill="#f17228" style="fill: var(--color4, #f17228)" d="M20.082 16.241c0.017-1.345 0.74-2.617 1.885-3.322-0.723-1.032-1.933-1.687-3.193-1.726-1.343-0.141-2.646 0.804-3.33 0.804-0.698 0-1.752-0.79-2.887-0.767-1.479 0.048-2.859 0.889-3.578 2.182-1.547 2.679-0.393 6.616 1.089 8.781 0.742 1.060 1.608 2.245 2.742 2.203 1.11-0.046 1.524-0.708 2.864-0.708 1.327 0 1.716 0.708 2.873 0.681 1.191-0.019 1.941-1.065 2.656-2.135 0.533-0.755 0.943-1.59 1.215-2.474-1.399-0.592-2.334-2-2.335-3.519zM17.897 9.769c0.649-0.779 0.969-1.781 0.892-2.792-0.992 0.104-1.908 0.578-2.566 1.328-0.643 0.732-0.978 1.716-0.915 2.689 0.992 0.010 1.968-0.451 2.589-1.224z"></path>
</symbol>
<symbol id="icon-twitter" viewBox="0 0 38 32">
<path d="M34.425 8.2v1.050c0 10.425-7.875 22.35-22.35 22.35-4.5 0-8.625-1.275-12.075-3.525 0.6 0.075 1.2 0.15 1.875 0.15 3.675 0 7.050-1.275 9.75-3.375-3.45-0.075-6.375-2.325-7.35-5.475 0.525 0.075 0.975 0.15 1.5 0.15 0.675 0 1.425-0.15 2.025-0.3-3.6-0.75-6.3-3.9-6.3-7.725v-0.075c1.050 0.6 2.325 0.9 3.6 0.975-2.175-1.425-3.525-3.825-3.525-6.525 0-1.5 0.375-2.85 1.050-3.975 3.9 4.725 9.75 7.875 16.275 8.25-0.15-0.6-0.225-1.2-0.225-1.8 0-4.35 3.525-7.875 7.875-7.875 2.25 0 4.275 0.9 5.775 2.475 1.725-0.375 3.45-1.050 4.95-1.95-0.6 1.875-1.8 3.375-3.45 4.35 1.575-0.15 3.15-0.6 4.5-1.2-1.050 1.575-2.4 2.925-3.9 4.050z"></path>
</symbol>
<symbol id="icon-mail" viewBox="0 0 40 32">
<path d="M39.632 10.868c0.316-0.237 0.79 0 0.79 0.395v16.105c0 2.132-1.737 3.789-3.789 3.789h-32.842c-2.132 0-3.789-1.658-3.789-3.789v-16.105c0-0.395 0.395-0.632 0.711-0.395 1.816 1.421 4.105 3.158 12.158 9 1.658 1.184 4.5 3.789 7.342 3.789 2.763 0 5.684-2.605 7.263-3.789 8.053-5.842 10.342-7.579 12.158-9zM20.211 21.053c-1.895 0.079-4.5-2.29-5.842-3.237-10.5-7.579-11.289-8.289-13.658-10.184-0.474-0.316-0.711-0.868-0.711-1.5v-1.5c0-2.053 1.658-3.789 3.789-3.789h32.842c2.053 0 3.789 1.737 3.789 3.789v1.5c0 0.632-0.316 1.184-0.79 1.5-2.368 1.895-3.158 2.605-13.658 10.184-1.342 0.947-3.947 3.316-5.763 3.237z"></path>
</symbol>
<symbol id="icon-instagram" viewBox="0 0 32 32">
<path d="M16.727 8.159c-4.364 0-7.841 3.545-7.841 7.841 0 4.364 3.477 7.841 7.841 7.841 4.295 0 7.841-3.477 7.841-7.841 0-4.295-3.545-7.841-7.841-7.841zM16.727 21.114c-2.795 0-5.114-2.25-5.114-5.114 0-2.795 2.25-5.045 5.114-5.045 2.796 0 5.046 2.25 5.046 5.045 0 2.864-2.25 5.114-5.046 5.114zM26.682 7.886c0-1.023-0.818-1.841-1.841-1.841s-1.841 0.818-1.841 1.841c0 1.023 0.818 1.841 1.841 1.841s1.841-0.818 1.841-1.841zM31.864 9.727c-0.136-2.455-0.682-4.636-2.454-6.409s-3.955-2.318-6.409-2.455c-2.523-0.136-10.091-0.136-12.614 0-2.455 0.136-4.568 0.682-6.409 2.455-1.773 1.773-2.318 3.955-2.455 6.409-0.136 2.523-0.136 10.091 0 12.614 0.136 2.455 0.682 4.568 2.455 6.409 1.841 1.773 3.955 2.318 6.409 2.455 2.523 0.136 10.091 0.136 12.614 0 2.455-0.136 4.636-0.682 6.409-2.455 1.773-1.841 2.318-3.954 2.454-6.409 0.136-2.523 0.136-10.091 0-12.614zM28.591 25c-0.477 1.364-1.568 2.386-2.864 2.932-2.046 0.818-6.818 0.614-9 0.614-2.25 0-7.023 0.204-9-0.614-1.364-0.545-2.386-1.568-2.932-2.932-0.818-1.977-0.614-6.75-0.614-9 0-2.182-0.205-6.955 0.614-9 0.545-1.295 1.568-2.318 2.932-2.864 1.977-0.818 6.75-0.614 9-0.614 2.182 0 6.954-0.205 9 0.614 1.295 0.477 2.318 1.568 2.864 2.864 0.818 2.045 0.614 6.818 0.614 9 0 2.25 0.205 7.023-0.614 9z"></path>
</symbol>
<symbol id="icon-facebook" viewBox="0 0 32 32">
<path d="M31.5 16c0 7.75-5.687 14.187-13.125 15.313v-10.813h3.625l0.687-4.5h-4.313v-2.875c0-1.25 0.625-2.438 2.563-2.438h1.937v-3.813s-1.75-0.313-3.5-0.313c-3.5 0-5.812 2.188-5.812 6.063v3.375h-3.938v4.5h3.938v10.813c-7.438-1.125-13.063-7.563-13.063-15.313 0-8.563 6.938-15.5 15.5-15.5s15.5 6.938 15.5 15.5z"></path>
</symbol>

</defs>
</svg>
